<svg xmlns="http://www.w3.org/2000/svg" viewBox="0 0 960 400" font-family="'Source Sans 3', 'Segoe UI', Helvetica, Arial, sans-serif">
<rect width="960" height="400" fill="#ffffff"/>
<text x="480" y="26" text-anchor="middle" font-size="19" font-weight="700" fill="#1f2933">Ritmo sinusal, fibrilación auricular y flutter auricular (derivación II)</text>
<rect x="200" y="40" width="746" height="96" fill="#fff4f2" stroke="#f0b9b0"/>
<line x1="200" y1="40" x2="200" y2="136" stroke="#f7d3cd" stroke-width="1.1"/>
<line x1="208" y1="40" x2="208" y2="136" stroke="#f7d3cd" stroke-width="0.45"/>
<line x1="216" y1="40" x2="216" y2="136" stroke="#f7d3cd" stroke-width="0.45"/>
<line x1="224" y1="40" x2="224" y2="136" stroke="#f7d3cd" stroke-width="0.45"/>
<line x1="232" y1="40" x2="232" y2="136" stroke="#f7d3cd" stroke-width="0.45"/>
<line x1="240" y1="40" x2="240" y2="136" stroke="#f7d3cd" stroke-width="1.1"/>
<line x1="248" y1="40" x2="248" y2="136" stroke="#f7d3cd" stroke-width="0.45"/>
<line x1="256" y1="40" x2="256" y2="136" stroke="#f7d3cd" stroke-width="0.45"/>
<line x1="264" y1="40" x2="264" y2="136" stroke="#f7d3cd" stroke-width="0.45"/>
<line x1="272" y1="40" x2="272" y2="136" stroke="#f7d3cd" stroke-width="0.45"/>
<line x1="280" y1="40" x2="280" y2="136" stroke="#f7d3cd" stroke-width="1.1"/>
<line x1="288" y1="40" x2="288" y2="136" stroke="#f7d3cd" stroke-width="0.45"/>
<line x1="296" y1="40" x2="296" y2="136" stroke="#f7d3cd" stroke-width="0.45"/>
<line x1="304" y1="40" x2="304" y2="136" stroke="#f7d3cd" stroke-width="0.45"/>
<line x1="312" y1="40" x2="312" y2="136" stroke="#f7d3cd" stroke-width="0.45"/>
<line x1="320" y1="40" x2="320" y2="136" stroke="#f7d3cd" stroke-width="1.1"/>
<line x1="328" y1="40" x2="328" y2="136" stroke="#f7d3cd" stroke-width="0.45"/>
<line x1="336" y1="40" x2="336" y2="136" stroke="#f7d3cd" stroke-width="0.45"/>
<line x1="344" y1="40" x2="344" y2="136" stroke="#f7d3cd" stroke-width="0.45"/>
<line x1="352" y1="40" x2="352" y2="136" stroke="#f7d3cd" stroke-width="0.45"/>
<line x1="360" y1="40" x2="360" y2="136" stroke="#f7d3cd" stroke-width="1.1"/>
<line x1="368" y1="40" x2="368" y2="136" stroke="#f7d3cd" stroke-width="0.45"/>
<line x1="376" y1="40" x2="376" y2="136" stroke="#f7d3cd" stroke-width="0.45"/>
<line x1="384" y1="40" x2="384" y2="136" stroke="#f7d3cd" stroke-width="0.45"/>
<line x1="392" y1="40" x2="392" y2="136" stroke="#f7d3cd" stroke-width="0.45"/>
<line x1="400" y1="40" x2="400" y2="136" stroke="#f7d3cd" stroke-width="1.1"/>
<line x1="408" y1="40" x2="408" y2="136" stroke="#f7d3cd" stroke-width="0.45"/>
<line x1="416" y1="40" x2="416" y2="136" stroke="#f7d3cd" stroke-width="0.45"/>
<line x1="424" y1="40" x2="424" y2="136" stroke="#f7d3cd" stroke-width="0.45"/>
<line x1="432" y1="40" x2="432" y2="136" stroke="#f7d3cd" stroke-width="0.45"/>
<line x1="440" y1="40" x2="440" y2="136" stroke="#f7d3cd" stroke-width="1.1"/>
<line x1="448" y1="40" x2="448" y2="136" stroke="#f7d3cd" stroke-width="0.45"/>
<line x1="456" y1="40" x2="456" y2="136" stroke="#f7d3cd" stroke-width="0.45"/>
<line x1="464" y1="40" x2="464" y2="136" stroke="#f7d3cd" stroke-width="0.45"/>
<line x1="472" y1="40" x2="472" y2="136" stroke="#f7d3cd" stroke-width="0.45"/>
<line x1="480" y1="40" x2="480" y2="136" stroke="#f7d3cd" stroke-width="1.1"/>
<line x1="488" y1="40" x2="488" y2="136" stroke="#f7d3cd" stroke-width="0.45"/>
<line x1="496" y1="40" x2="496" y2="136" stroke="#f7d3cd" stroke-width="0.45"/>
<line x1="504" y1="40" x2="504" y2="136" stroke="#f7d3cd" stroke-width="0.45"/>
<line x1="512" y1="40" x2="512" y2="136" stroke="#f7d3cd" stroke-width="0.45"/>
<line x1="520" y1="40" x2="520" y2="136" stroke="#f7d3cd" stroke-width="1.1"/>
<line x1="528" y1="40" x2="528" y2="136" stroke="#f7d3cd" stroke-width="0.45"/>
<line x1="536" y1="40" x2="536" y2="136" stroke="#f7d3cd" stroke-width="0.45"/>
<line x1="544" y1="40" x2="544" y2="136" stroke="#f7d3cd" stroke-width="0.45"/>
<line x1="552" y1="40" x2="552" y2="136" stroke="#f7d3cd" stroke-width="0.45"/>
<line x1="560" y1="40" x2="560" y2="136" stroke="#f7d3cd" stroke-width="1.1"/>
<line x1="568" y1="40" x2="568" y2="136" stroke="#f7d3cd" stroke-width="0.45"/>
<line x1="576" y1="40" x2="576" y2="136" stroke="#f7d3cd" stroke-width="0.45"/>
<line x1="584" y1="40" x2="584" y2="136" stroke="#f7d3cd" stroke-width="0.45"/>
<line x1="592" y1="40" x2="592" y2="136" stroke="#f7d3cd" stroke-width="0.45"/>
<line x1="600" y1="40" x2="600" y2="136" stroke="#f7d3cd" stroke-width="1.1"/>
<line x1="608" y1="40" x2="608" y2="136" stroke="#f7d3cd" stroke-width="0.45"/>
<line x1="616" y1="40" x2="616" y2="136" stroke="#f7d3cd" stroke-width="0.45"/>
<line x1="624" y1="40" x2="624" y2="136" stroke="#f7d3cd" stroke-width="0.45"/>
<line x1="632" y1="40" x2="632" y2="136" stroke="#f7d3cd" stroke-width="0.45"/>
<line x1="640" y1="40" x2="640" y2="136" stroke="#f7d3cd" stroke-width="1.1"/>
<line x1="648" y1="40" x2="648" y2="136" stroke="#f7d3cd" stroke-width="0.45"/>
<line x1="656" y1="40" x2="656" y2="136" stroke="#f7d3cd" stroke-width="0.45"/>
<line x1="664" y1="40" x2="664" y2="136" stroke="#f7d3cd" stroke-width="0.45"/>
<line x1="672" y1="40" x2="672" y2="136" stroke="#f7d3cd" stroke-width="0.45"/>
<line x1="680" y1="40" x2="680" y2="136" stroke="#f7d3cd" stroke-width="1.1"/>
<line x1="688" y1="40" x2="688" y2="136" stroke="#f7d3cd" stroke-width="0.45"/>
<line x1="696" y1="40" x2="696" y2="136" stroke="#f7d3cd" stroke-width="0.45"/>
<line x1="704" y1="40" x2="704" y2="136" stroke="#f7d3cd" stroke-width="0.45"/>
<line x1="712" y1="40" x2="712" y2="136" stroke="#f7d3cd" stroke-width="0.45"/>
<line x1="720" y1="40" x2="720" y2="136" stroke="#f7d3cd" stroke-width="1.1"/>
<line x1="728" y1="40" x2="728" y2="136" stroke="#f7d3cd" stroke-width="0.45"/>
<line x1="736" y1="40" x2="736" y2="136" stroke="#f7d3cd" stroke-width="0.45"/>
<line x1="744" y1="40" x2="744" y2="136" stroke="#f7d3cd" stroke-width="0.45"/>
<line x1="752" y1="40" x2="752" y2="136" stroke="#f7d3cd" stroke-width="0.45"/>
<line x1="760" y1="40" x2="760" y2="136" stroke="#f7d3cd" stroke-width="1.1"/>
<line x1="768" y1="40" x2="768" y2="136" stroke="#f7d3cd" stroke-width="0.45"/>
<line x1="776" y1="40" x2="776" y2="136" stroke="#f7d3cd" stroke-width="0.45"/>
<line x1="784" y1="40" x2="784" y2="136" stroke="#f7d3cd" stroke-width="0.45"/>
<line x1="792" y1="40" x2="792" y2="136" stroke="#f7d3cd" stroke-width="0.45"/>
<line x1="800" y1="40" x2="800" y2="136" stroke="#f7d3cd" stroke-width="1.1"/>
<line x1="808" y1="40" x2="808" y2="136" stroke="#f7d3cd" stroke-width="0.45"/>
<line x1="816" y1="40" x2="816" y2="136" stroke="#f7d3cd" stroke-width="0.45"/>
<line x1="824" y1="40" x2="824" y2="136" stroke="#f7d3cd" stroke-width="0.45"/>
<line x1="832" y1="40" x2="832" y2="136" stroke="#f7d3cd" stroke-width="0.45"/>
<line x1="840" y1="40" x2="840" y2="136" stroke="#f7d3cd" stroke-width="1.1"/>
<line x1="848" y1="40" x2="848" y2="136" stroke="#f7d3cd" stroke-width="0.45"/>
<line x1="856" y1="40" x2="856" y2="136" stroke="#f7d3cd" stroke-width="0.45"/>
<line x1="864" y1="40" x2="864" y2="136" stroke="#f7d3cd" stroke-width="0.45"/>
<line x1="872" y1="40" x2="872" y2="136" stroke="#f7d3cd" stroke-width="0.45"/>
<line x1="880" y1="40" x2="880" y2="136" stroke="#f7d3cd" stroke-width="1.1"/>
<line x1="888" y1="40" x2="888" y2="136" stroke="#f7d3cd" stroke-width="0.45"/>
<line x1="896" y1="40" x2="896" y2="136" stroke="#f7d3cd" stroke-width="0.45"/>
<line x1="904" y1="40" x2="904" y2="136" stroke="#f7d3cd" stroke-width="0.45"/>
<line x1="912" y1="40" x2="912" y2="136" stroke="#f7d3cd" stroke-width="0.45"/>
<line x1="920" y1="40" x2="920" y2="136" stroke="#f7d3cd" stroke-width="1.1"/>
<line x1="928" y1="40" x2="928" y2="136" stroke="#f7d3cd" stroke-width="0.45"/>
<line x1="936" y1="40" x2="936" y2="136" stroke="#f7d3cd" stroke-width="0.45"/>
<line x1="944" y1="40" x2="944" y2="136" stroke="#f7d3cd" stroke-width="0.45"/>
<line x1="200" y1="40" x2="946" y2="40" stroke="#f7d3cd" stroke-width="1.1"/>
<line x1="200" y1="48" x2="946" y2="48" stroke="#f7d3cd" stroke-width="0.45"/>
<line x1="200" y1="56" x2="946" y2="56" stroke="#f7d3cd" stroke-width="0.45"/>
<line x1="200" y1="64" x2="946" y2="64" stroke="#f7d3cd" stroke-width="0.45"/>
<line x1="200" y1="72" x2="946" y2="72" stroke="#f7d3cd" stroke-width="0.45"/>
<line x1="200" y1="80" x2="946" y2="80" stroke="#f7d3cd" stroke-width="1.1"/>
<line x1="200" y1="88" x2="946" y2="88" stroke="#f7d3cd" stroke-width="0.45"/>
<line x1="200" y1="96" x2="946" y2="96" stroke="#f7d3cd" stroke-width="0.45"/>
<line x1="200" y1="104" x2="946" y2="104" stroke="#f7d3cd" stroke-width="0.45"/>
<line x1="200" y1="112" x2="946" y2="112" stroke="#f7d3cd" stroke-width="0.45"/>
<line x1="200" y1="120" x2="946" y2="120" stroke="#f7d3cd" stroke-width="1.1"/>
<line x1="200" y1="128" x2="946" y2="128" stroke="#f7d3cd" stroke-width="0.45"/>
<line x1="200" y1="136" x2="946" y2="136" stroke="#f7d3cd" stroke-width="0.45"/>
<text x="14" y="78" font-size="15" font-weight="700" fill="#1f2933">Ritmo sinusal</text>
<text x="14" y="98" font-size="12" fill="#52606d">RR regular, onda P antes de</text>
<text x="14" y="113" font-size="12" fill="#52606d">cada QRS</text>
<path d="M204.0 110.0 L210.0 110.0 L212.0 107.9 L214.0 106.1 L216.0 104.8 L218.0 104.1 L220.0 104.1 L222.0 104.8 L224.0 106.1 L226.0 107.9 L228.0 110.0 L240.0 110.0 L240.0 110.0 L243.0 115.0 L248.0 58.0 L253.0 120.0 L257.0 110.0 L271.0 110.0 L271.0 110.0 L273.0 107.8 L275.0 105.7 L277.0 103.7 L279.0 101.9 L281.0 100.4 L283.0 99.3 L285.0 98.5 L287.0 98.1 L289.0 98.1 L291.0 98.5 L293.0 99.3 L295.0 100.4 L297.0 101.9 L299.0 103.7 L301.0 105.7 L303.0 107.8 L305.0 110.0 L335.0 110.0 L335.0 110.0 L337.0 107.9 L339.0 106.1 L341.0 104.8 L343.0 104.1 L345.0 104.1 L347.0 104.8 L349.0 106.1 L351.0 107.9 L353.0 110.0 L365.0 110.0 L365.0 110.0 L368.0 115.0 L373.0 58.0 L378.0 120.0 L382.0 110.0 L396.0 110.0 L396.0 110.0 L398.0 107.8 L400.0 105.7 L402.0 103.7 L404.0 101.9 L406.0 100.4 L408.0 99.3 L410.0 98.5 L412.0 98.1 L414.0 98.1 L416.0 98.5 L418.0 99.3 L420.0 100.4 L422.0 101.9 L424.0 103.7 L426.0 105.7 L428.0 107.8 L430.0 110.0 L460.0 110.0 L460.0 110.0 L462.0 107.9 L464.0 106.1 L466.0 104.8 L468.0 104.1 L470.0 104.1 L472.0 104.8 L474.0 106.1 L476.0 107.9 L478.0 110.0 L490.0 110.0 L490.0 110.0 L493.0 115.0 L498.0 58.0 L503.0 120.0 L507.0 110.0 L521.0 110.0 L521.0 110.0 L523.0 107.8 L525.0 105.7 L527.0 103.7 L529.0 101.9 L531.0 100.4 L533.0 99.3 L535.0 98.5 L537.0 98.1 L539.0 98.1 L541.0 98.5 L543.0 99.3 L545.0 100.4 L547.0 101.9 L549.0 103.7 L551.0 105.7 L553.0 107.8 L555.0 110.0 L585.0 110.0 L585.0 110.0 L587.0 107.9 L589.0 106.1 L591.0 104.8 L593.0 104.1 L595.0 104.1 L597.0 104.8 L599.0 106.1 L601.0 107.9 L603.0 110.0 L615.0 110.0 L615.0 110.0 L618.0 115.0 L623.0 58.0 L628.0 120.0 L632.0 110.0 L646.0 110.0 L646.0 110.0 L648.0 107.8 L650.0 105.7 L652.0 103.7 L654.0 101.9 L656.0 100.4 L658.0 99.3 L660.0 98.5 L662.0 98.1 L664.0 98.1 L666.0 98.5 L668.0 99.3 L670.0 100.4 L672.0 101.9 L674.0 103.7 L676.0 105.7 L678.0 107.8 L680.0 110.0 L710.0 110.0 L710.0 110.0 L712.0 107.9 L714.0 106.1 L716.0 104.8 L718.0 104.1 L720.0 104.1 L722.0 104.8 L724.0 106.1 L726.0 107.9 L728.0 110.0 L740.0 110.0 L740.0 110.0 L743.0 115.0 L748.0 58.0 L753.0 120.0 L757.0 110.0 L771.0 110.0 L771.0 110.0 L773.0 107.8 L775.0 105.7 L777.0 103.7 L779.0 101.9 L781.0 100.4 L783.0 99.3 L785.0 98.5 L787.0 98.1 L789.0 98.1 L791.0 98.5 L793.0 99.3 L795.0 100.4 L797.0 101.9 L799.0 103.7 L801.0 105.7 L803.0 107.8 L805.0 110.0 L835.0 110.0 L835.0 110.0 L837.0 107.9 L839.0 106.1 L841.0 104.8 L843.0 104.1 L845.0 104.1 L847.0 104.8 L849.0 106.1 L851.0 107.9 L853.0 110.0 L865.0 110.0 L865.0 110.0 L868.0 115.0 L873.0 58.0 L878.0 120.0 L882.0 110.0 L896.0 110.0 L896.0 110.0 L898.0 107.8 L900.0 105.7 L902.0 103.7 L904.0 101.9 L906.0 100.4 L908.0 99.3 L910.0 98.5 L912.0 98.1 L914.0 98.1 L916.0 98.5 L918.0 99.3 L920.0 100.4 L922.0 101.9 L924.0 103.7 L926.0 105.7 L928.0 107.8 L930.0 110.0 L960.0 110.0 L942.0 110.0" fill="none" stroke="#1f2933" stroke-width="2.1" stroke-linejoin="round"/>
<rect x="200" y="150" width="746" height="96" fill="#fff4f2" stroke="#f0b9b0"/>
<line x1="200" y1="150" x2="200" y2="246" stroke="#f7d3cd" stroke-width="1.1"/>
<line x1="208" y1="150" x2="208" y2="246" stroke="#f7d3cd" stroke-width="0.45"/>
<line x1="216" y1="150" x2="216" y2="246" stroke="#f7d3cd" stroke-width="0.45"/>
<line x1="224" y1="150" x2="224" y2="246" stroke="#f7d3cd" stroke-width="0.45"/>
<line x1="232" y1="150" x2="232" y2="246" stroke="#f7d3cd" stroke-width="0.45"/>
<line x1="240" y1="150" x2="240" y2="246" stroke="#f7d3cd" stroke-width="1.1"/>
<line x1="248" y1="150" x2="248" y2="246" stroke="#f7d3cd" stroke-width="0.45"/>
<line x1="256" y1="150" x2="256" y2="246" stroke="#f7d3cd" stroke-width="0.45"/>
<line x1="264" y1="150" x2="264" y2="246" stroke="#f7d3cd" stroke-width="0.45"/>
<line x1="272" y1="150" x2="272" y2="246" stroke="#f7d3cd" stroke-width="0.45"/>
<line x1="280" y1="150" x2="280" y2="246" stroke="#f7d3cd" stroke-width="1.1"/>
<line x1="288" y1="150" x2="288" y2="246" stroke="#f7d3cd" stroke-width="0.45"/>
<line x1="296" y1="150" x2="296" y2="246" stroke="#f7d3cd" stroke-width="0.45"/>
<line x1="304" y1="150" x2="304" y2="246" stroke="#f7d3cd" stroke-width="0.45"/>
<line x1="312" y1="150" x2="312" y2="246" stroke="#f7d3cd" stroke-width="0.45"/>
<line x1="320" y1="150" x2="320" y2="246" stroke="#f7d3cd" stroke-width="1.1"/>
<line x1="328" y1="150" x2="328" y2="246" stroke="#f7d3cd" stroke-width="0.45"/>
<line x1="336" y1="150" x2="336" y2="246" stroke="#f7d3cd" stroke-width="0.45"/>
<line x1="344" y1="150" x2="344" y2="246" stroke="#f7d3cd" stroke-width="0.45"/>
<line x1="352" y1="150" x2="352" y2="246" stroke="#f7d3cd" stroke-width="0.45"/>
<line x1="360" y1="150" x2="360" y2="246" stroke="#f7d3cd" stroke-width="1.1"/>
<line x1="368" y1="150" x2="368" y2="246" stroke="#f7d3cd" stroke-width="0.45"/>
<line x1="376" y1="150" x2="376" y2="246" stroke="#f7d3cd" stroke-width="0.45"/>
<line x1="384" y1="150" x2="384" y2="246" stroke="#f7d3cd" stroke-width="0.45"/>
<line x1="392" y1="150" x2="392" y2="246" stroke="#f7d3cd" stroke-width="0.45"/>
<line x1="400" y1="150" x2="400" y2="246" stroke="#f7d3cd" stroke-width="1.1"/>
<line x1="408" y1="150" x2="408" y2="246" stroke="#f7d3cd" stroke-width="0.45"/>
<line x1="416" y1="150" x2="416" y2="246" stroke="#f7d3cd" stroke-width="0.45"/>
<line x1="424" y1="150" x2="424" y2="246" stroke="#f7d3cd" stroke-width="0.45"/>
<line x1="432" y1="150" x2="432" y2="246" stroke="#f7d3cd" stroke-width="0.45"/>
<line x1="440" y1="150" x2="440" y2="246" stroke="#f7d3cd" stroke-width="1.1"/>
<line x1="448" y1="150" x2="448" y2="246" stroke="#f7d3cd" stroke-width="0.45"/>
<line x1="456" y1="150" x2="456" y2="246" stroke="#f7d3cd" stroke-width="0.45"/>
<line x1="464" y1="150" x2="464" y2="246" stroke="#f7d3cd" stroke-width="0.45"/>
<line x1="472" y1="150" x2="472" y2="246" stroke="#f7d3cd" stroke-width="0.45"/>
<line x1="480" y1="150" x2="480" y2="246" stroke="#f7d3cd" stroke-width="1.1"/>
<line x1="488" y1="150" x2="488" y2="246" stroke="#f7d3cd" stroke-width="0.45"/>
<line x1="496" y1="150" x2="496" y2="246" stroke="#f7d3cd" stroke-width="0.45"/>
<line x1="504" y1="150" x2="504" y2="246" stroke="#f7d3cd" stroke-width="0.45"/>
<line x1="512" y1="150" x2="512" y2="246" stroke="#f7d3cd" stroke-width="0.45"/>
<line x1="520" y1="150" x2="520" y2="246" stroke="#f7d3cd" stroke-width="1.1"/>
<line x1="528" y1="150" x2="528" y2="246" stroke="#f7d3cd" stroke-width="0.45"/>
<line x1="536" y1="150" x2="536" y2="246" stroke="#f7d3cd" stroke-width="0.45"/>
<line x1="544" y1="150" x2="544" y2="246" stroke="#f7d3cd" stroke-width="0.45"/>
<line x1="552" y1="150" x2="552" y2="246" stroke="#f7d3cd" stroke-width="0.45"/>
<line x1="560" y1="150" x2="560" y2="246" stroke="#f7d3cd" stroke-width="1.1"/>
<line x1="568" y1="150" x2="568" y2="246" stroke="#f7d3cd" stroke-width="0.45"/>
<line x1="576" y1="150" x2="576" y2="246" stroke="#f7d3cd" stroke-width="0.45"/>
<line x1="584" y1="150" x2="584" y2="246" stroke="#f7d3cd" stroke-width="0.45"/>
<line x1="592" y1="150" x2="592" y2="246" stroke="#f7d3cd" stroke-width="0.45"/>
<line x1="600" y1="150" x2="600" y2="246" stroke="#f7d3cd" stroke-width="1.1"/>
<line x1="608" y1="150" x2="608" y2="246" stroke="#f7d3cd" stroke-width="0.45"/>
<line x1="616" y1="150" x2="616" y2="246" stroke="#f7d3cd" stroke-width="0.45"/>
<line x1="624" y1="150" x2="624" y2="246" stroke="#f7d3cd" stroke-width="0.45"/>
<line x1="632" y1="150" x2="632" y2="246" stroke="#f7d3cd" stroke-width="0.45"/>
<line x1="640" y1="150" x2="640" y2="246" stroke="#f7d3cd" stroke-width="1.1"/>
<line x1="648" y1="150" x2="648" y2="246" stroke="#f7d3cd" stroke-width="0.45"/>
<line x1="656" y1="150" x2="656" y2="246" stroke="#f7d3cd" stroke-width="0.45"/>
<line x1="664" y1="150" x2="664" y2="246" stroke="#f7d3cd" stroke-width="0.45"/>
<line x1="672" y1="150" x2="672" y2="246" stroke="#f7d3cd" stroke-width="0.45"/>
<line x1="680" y1="150" x2="680" y2="246" stroke="#f7d3cd" stroke-width="1.1"/>
<line x1="688" y1="150" x2="688" y2="246" stroke="#f7d3cd" stroke-width="0.45"/>
<line x1="696" y1="150" x2="696" y2="246" stroke="#f7d3cd" stroke-width="0.45"/>
<line x1="704" y1="150" x2="704" y2="246" stroke="#f7d3cd" stroke-width="0.45"/>
<line x1="712" y1="150" x2="712" y2="246" stroke="#f7d3cd" stroke-width="0.45"/>
<line x1="720" y1="150" x2="720" y2="246" stroke="#f7d3cd" stroke-width="1.1"/>
<line x1="728" y1="150" x2="728" y2="246" stroke="#f7d3cd" stroke-width="0.45"/>
<line x1="736" y1="150" x2="736" y2="246" stroke="#f7d3cd" stroke-width="0.45"/>
<line x1="744" y1="150" x2="744" y2="246" stroke="#f7d3cd" stroke-width="0.45"/>
<line x1="752" y1="150" x2="752" y2="246" stroke="#f7d3cd" stroke-width="0.45"/>
<line x1="760" y1="150" x2="760" y2="246" stroke="#f7d3cd" stroke-width="1.1"/>
<line x1="768" y1="150" x2="768" y2="246" stroke="#f7d3cd" stroke-width="0.45"/>
<line x1="776" y1="150" x2="776" y2="246" stroke="#f7d3cd" stroke-width="0.45"/>
<line x1="784" y1="150" x2="784" y2="246" stroke="#f7d3cd" stroke-width="0.45"/>
<line x1="792" y1="150" x2="792" y2="246" stroke="#f7d3cd" stroke-width="0.45"/>
<line x1="800" y1="150" x2="800" y2="246" stroke="#f7d3cd" stroke-width="1.1"/>
<line x1="808" y1="150" x2="808" y2="246" stroke="#f7d3cd" stroke-width="0.45"/>
<line x1="816" y1="150" x2="816" y2="246" stroke="#f7d3cd" stroke-width="0.45"/>
<line x1="824" y1="150" x2="824" y2="246" stroke="#f7d3cd" stroke-width="0.45"/>
<line x1="832" y1="150" x2="832" y2="246" stroke="#f7d3cd" stroke-width="0.45"/>
<line x1="840" y1="150" x2="840" y2="246" stroke="#f7d3cd" stroke-width="1.1"/>
<line x1="848" y1="150" x2="848" y2="246" stroke="#f7d3cd" stroke-width="0.45"/>
<line x1="856" y1="150" x2="856" y2="246" stroke="#f7d3cd" stroke-width="0.45"/>
<line x1="864" y1="150" x2="864" y2="246" stroke="#f7d3cd" stroke-width="0.45"/>
<line x1="872" y1="150" x2="872" y2="246" stroke="#f7d3cd" stroke-width="0.45"/>
<line x1="880" y1="150" x2="880" y2="246" stroke="#f7d3cd" stroke-width="1.1"/>
<line x1="888" y1="150" x2="888" y2="246" stroke="#f7d3cd" stroke-width="0.45"/>
<line x1="896" y1="150" x2="896" y2="246" stroke="#f7d3cd" stroke-width="0.45"/>
<line x1="904" y1="150" x2="904" y2="246" stroke="#f7d3cd" stroke-width="0.45"/>
<line x1="912" y1="150" x2="912" y2="246" stroke="#f7d3cd" stroke-width="0.45"/>
<line x1="920" y1="150" x2="920" y2="246" stroke="#f7d3cd" stroke-width="1.1"/>
<line x1="928" y1="150" x2="928" y2="246" stroke="#f7d3cd" stroke-width="0.45"/>
<line x1="936" y1="150" x2="936" y2="246" stroke="#f7d3cd" stroke-width="0.45"/>
<line x1="944" y1="150" x2="944" y2="246" stroke="#f7d3cd" stroke-width="0.45"/>
<line x1="200" y1="150" x2="946" y2="150" stroke="#f7d3cd" stroke-width="1.1"/>
<line x1="200" y1="158" x2="946" y2="158" stroke="#f7d3cd" stroke-width="0.45"/>
<line x1="200" y1="166" x2="946" y2="166" stroke="#f7d3cd" stroke-width="0.45"/>
<line x1="200" y1="174" x2="946" y2="174" stroke="#f7d3cd" stroke-width="0.45"/>
<line x1="200" y1="182" x2="946" y2="182" stroke="#f7d3cd" stroke-width="0.45"/>
<line x1="200" y1="190" x2="946" y2="190" stroke="#f7d3cd" stroke-width="1.1"/>
<line x1="200" y1="198" x2="946" y2="198" stroke="#f7d3cd" stroke-width="0.45"/>
<line x1="200" y1="206" x2="946" y2="206" stroke="#f7d3cd" stroke-width="0.45"/>
<line x1="200" y1="214" x2="946" y2="214" stroke="#f7d3cd" stroke-width="0.45"/>
<line x1="200" y1="222" x2="946" y2="222" stroke="#f7d3cd" stroke-width="0.45"/>
<line x1="200" y1="230" x2="946" y2="230" stroke="#f7d3cd" stroke-width="1.1"/>
<line x1="200" y1="238" x2="946" y2="238" stroke="#f7d3cd" stroke-width="0.45"/>
<line x1="200" y1="246" x2="946" y2="246" stroke="#f7d3cd" stroke-width="0.45"/>
<text x="14" y="188" font-size="15" font-weight="700" fill="#1f2933">Fibrilación auricular</text>
<text x="14" y="208" font-size="12" fill="#52606d">RR irregularmente irregular,</text>
<text x="14" y="223" font-size="12" fill="#52606d">sin ondas P, línea de base</text>
<text x="14" y="238" font-size="12" fill="#52606d">fibrilatoria</text>
<path d="M204.0 220.0 L206.0 222.0 L209.0 220.9 L212.0 215.6 L215.0 224.6 L218.0 214.9 L221.0 223.2 L224.0 219.8 L227.0 219.2 L230.0 219.5 L233.0 217.2 L236.0 222.3 L239.0 216.7 L242.0 221.2 L245.0 218.3 L248.0 222.3 L251.0 221.5 L254.0 218.0 L257.0 221.5 L260.0 216.8 L263.0 221.3 L266.0 220.0 L269.0 225.0 L274.0 168.0 L279.0 230.0 L283.0 220.0 L289.0 220.0 L291.0 218.1 L293.0 216.3 L295.0 214.7 L297.0 213.3 L299.0 212.2 L301.0 211.4 L303.0 211.0 L305.0 211.0 L307.0 211.4 L309.0 212.2 L311.0 213.3 L313.0 214.7 L315.0 216.3 L317.0 218.1 L319.0 220.0 L319.0 221.5 L322.0 219.0 L325.0 220.3 L328.0 219.0 L331.0 216.6 L334.0 222.2 L337.0 217.8 L340.0 222.1 L343.0 217.8 L346.0 221.9 L349.0 219.7 L352.0 218.5 L355.0 221.1 L358.0 214.8 L361.0 222.2 L364.0 218.0 L367.0 221.2 L370.0 219.3 L373.0 218.8 L376.0 220.0 L379.0 225.0 L384.0 168.0 L389.0 230.0 L393.0 220.0 L399.0 220.0 L401.0 218.1 L403.0 216.3 L405.0 214.7 L407.0 213.3 L409.0 212.2 L411.0 211.4 L413.0 211.0 L415.0 211.0 L417.0 211.4 L419.0 212.2 L421.0 213.3 L423.0 214.7 L425.0 216.3 L427.0 218.1 L429.0 220.0 L429.0 218.4 L432.0 221.4 L435.0 215.5 L438.0 224.6 L441.0 215.3 L444.0 221.2 L447.0 219.4 L450.0 218.5 L453.0 222.1 L456.0 217.2 L459.0 221.8 L462.0 216.9 L465.0 220.8 L468.0 218.6 L471.0 221.0 L474.0 221.8 L477.0 218.7 L480.0 221.8 L483.0 217.0 L486.0 223.5 L489.0 220.3 L492.0 218.8 L495.0 221.4 L498.0 217.0 L501.0 224.7 L504.0 215.0 L507.0 220.8 L510.0 218.0 L513.0 220.4 L516.0 220.1 L519.0 218.0 L522.0 222.7 L525.0 217.0 L528.0 223.3 L531.0 218.5 L534.0 220.6 L537.0 223.2 L540.0 220.0 L543.0 225.0 L548.0 168.0 L553.0 230.0 L557.0 220.0 L563.0 220.0 L565.0 218.1 L567.0 216.3 L569.0 214.7 L571.0 213.3 L573.0 212.2 L575.0 211.4 L577.0 211.0 L579.0 211.0 L581.0 211.4 L583.0 212.2 L585.0 213.3 L587.0 214.7 L589.0 216.3 L591.0 218.1 L593.0 220.0 L593.0 219.4 L596.0 217.3 L599.0 222.0 L602.0 215.0 L605.0 221.2 L608.0 219.2 L611.0 218.9 L614.0 220.1 L617.0 217.1 L620.0 224.8 L623.0 214.8 L626.0 222.8 L629.0 218.2 L632.0 222.1 L635.0 222.2 L638.0 219.2 L641.0 222.3 L644.0 216.2 L647.0 222.6 L650.0 219.4 L653.0 222.6 L656.0 219.4 L659.0 216.6 L662.0 222.1 L665.0 215.4 L668.0 223.1 L671.0 218.1 L674.0 220.0 L677.0 225.0 L682.0 168.0 L687.0 230.0 L691.0 220.0 L697.0 220.0 L699.0 218.1 L701.0 216.3 L703.0 214.7 L705.0 213.3 L707.0 212.2 L709.0 211.4 L711.0 211.0 L713.0 211.0 L715.0 211.4 L717.0 212.2 L719.0 213.3 L721.0 214.7 L723.0 216.3 L725.0 218.1 L727.0 220.0 L727.0 216.5 L730.0 220.0 L733.0 220.3 L736.0 218.8 L739.0 222.1 L742.0 215.1 L745.0 224.8 L748.0 219.1 L751.0 222.2 L754.0 220.9 L757.0 218.4 L760.0 224.2 L763.0 218.4 L766.0 224.2 L769.0 217.4 L772.0 221.3 L775.0 219.3 L778.0 218.6 L781.0 222.2 L784.0 215.4 L787.0 225.4 L790.0 216.8 L793.0 220.3 L796.0 220.0 L799.0 217.3 L802.0 222.7 L805.0 216.9 L808.0 220.0 L811.0 225.0 L816.0 168.0 L821.0 230.0 L825.0 220.0 L831.0 220.0 L833.0 218.1 L835.0 216.3 L837.0 214.7 L839.0 213.3 L841.0 212.2 L843.0 211.4 L845.0 211.0 L847.0 211.0 L849.0 211.4 L851.0 212.2 L853.0 213.3 L855.0 214.7 L857.0 216.3 L859.0 218.1 L861.0 220.0 L861.0 217.4 L864.0 221.8 L867.0 215.6 L870.0 221.9 L873.0 219.5 L876.0 221.3 L879.0 222.3 L882.0 216.9 L885.0 221.9 L888.0 216.6 L891.0 224.4 L894.0 218.7 L897.0 218.9 L900.0 220.3 L903.0 218.1 L942.0 220.0" fill="none" stroke="#1f2933" stroke-width="2.1" stroke-linejoin="round"/>
<rect x="200" y="260" width="746" height="96" fill="#fff4f2" stroke="#f0b9b0"/>
<line x1="200" y1="260" x2="200" y2="356" stroke="#f7d3cd" stroke-width="1.1"/>
<line x1="208" y1="260" x2="208" y2="356" stroke="#f7d3cd" stroke-width="0.45"/>
<line x1="216" y1="260" x2="216" y2="356" stroke="#f7d3cd" stroke-width="0.45"/>
<line x1="224" y1="260" x2="224" y2="356" stroke="#f7d3cd" stroke-width="0.45"/>
<line x1="232" y1="260" x2="232" y2="356" stroke="#f7d3cd" stroke-width="0.45"/>
<line x1="240" y1="260" x2="240" y2="356" stroke="#f7d3cd" stroke-width="1.1"/>
<line x1="248" y1="260" x2="248" y2="356" stroke="#f7d3cd" stroke-width="0.45"/>
<line x1="256" y1="260" x2="256" y2="356" stroke="#f7d3cd" stroke-width="0.45"/>
<line x1="264" y1="260" x2="264" y2="356" stroke="#f7d3cd" stroke-width="0.45"/>
<line x1="272" y1="260" x2="272" y2="356" stroke="#f7d3cd" stroke-width="0.45"/>
<line x1="280" y1="260" x2="280" y2="356" stroke="#f7d3cd" stroke-width="1.1"/>
<line x1="288" y1="260" x2="288" y2="356" stroke="#f7d3cd" stroke-width="0.45"/>
<line x1="296" y1="260" x2="296" y2="356" stroke="#f7d3cd" stroke-width="0.45"/>
<line x1="304" y1="260" x2="304" y2="356" stroke="#f7d3cd" stroke-width="0.45"/>
<line x1="312" y1="260" x2="312" y2="356" stroke="#f7d3cd" stroke-width="0.45"/>
<line x1="320" y1="260" x2="320" y2="356" stroke="#f7d3cd" stroke-width="1.1"/>
<line x1="328" y1="260" x2="328" y2="356" stroke="#f7d3cd" stroke-width="0.45"/>
<line x1="336" y1="260" x2="336" y2="356" stroke="#f7d3cd" stroke-width="0.45"/>
<line x1="344" y1="260" x2="344" y2="356" stroke="#f7d3cd" stroke-width="0.45"/>
<line x1="352" y1="260" x2="352" y2="356" stroke="#f7d3cd" stroke-width="0.45"/>
<line x1="360" y1="260" x2="360" y2="356" stroke="#f7d3cd" stroke-width="1.1"/>
<line x1="368" y1="260" x2="368" y2="356" stroke="#f7d3cd" stroke-width="0.45"/>
<line x1="376" y1="260" x2="376" y2="356" stroke="#f7d3cd" stroke-width="0.45"/>
<line x1="384" y1="260" x2="384" y2="356" stroke="#f7d3cd" stroke-width="0.45"/>
<line x1="392" y1="260" x2="392" y2="356" stroke="#f7d3cd" stroke-width="0.45"/>
<line x1="400" y1="260" x2="400" y2="356" stroke="#f7d3cd" stroke-width="1.1"/>
<line x1="408" y1="260" x2="408" y2="356" stroke="#f7d3cd" stroke-width="0.45"/>
<line x1="416" y1="260" x2="416" y2="356" stroke="#f7d3cd" stroke-width="0.45"/>
<line x1="424" y1="260" x2="424" y2="356" stroke="#f7d3cd" stroke-width="0.45"/>
<line x1="432" y1="260" x2="432" y2="356" stroke="#f7d3cd" stroke-width="0.45"/>
<line x1="440" y1="260" x2="440" y2="356" stroke="#f7d3cd" stroke-width="1.1"/>
<line x1="448" y1="260" x2="448" y2="356" stroke="#f7d3cd" stroke-width="0.45"/>
<line x1="456" y1="260" x2="456" y2="356" stroke="#f7d3cd" stroke-width="0.45"/>
<line x1="464" y1="260" x2="464" y2="356" stroke="#f7d3cd" stroke-width="0.45"/>
<line x1="472" y1="260" x2="472" y2="356" stroke="#f7d3cd" stroke-width="0.45"/>
<line x1="480" y1="260" x2="480" y2="356" stroke="#f7d3cd" stroke-width="1.1"/>
<line x1="488" y1="260" x2="488" y2="356" stroke="#f7d3cd" stroke-width="0.45"/>
<line x1="496" y1="260" x2="496" y2="356" stroke="#f7d3cd" stroke-width="0.45"/>
<line x1="504" y1="260" x2="504" y2="356" stroke="#f7d3cd" stroke-width="0.45"/>
<line x1="512" y1="260" x2="512" y2="356" stroke="#f7d3cd" stroke-width="0.45"/>
<line x1="520" y1="260" x2="520" y2="356" stroke="#f7d3cd" stroke-width="1.1"/>
<line x1="528" y1="260" x2="528" y2="356" stroke="#f7d3cd" stroke-width="0.45"/>
<line x1="536" y1="260" x2="536" y2="356" stroke="#f7d3cd" stroke-width="0.45"/>
<line x1="544" y1="260" x2="544" y2="356" stroke="#f7d3cd" stroke-width="0.45"/>
<line x1="552" y1="260" x2="552" y2="356" stroke="#f7d3cd" stroke-width="0.45"/>
<line x1="560" y1="260" x2="560" y2="356" stroke="#f7d3cd" stroke-width="1.1"/>
<line x1="568" y1="260" x2="568" y2="356" stroke="#f7d3cd" stroke-width="0.45"/>
<line x1="576" y1="260" x2="576" y2="356" stroke="#f7d3cd" stroke-width="0.45"/>
<line x1="584" y1="260" x2="584" y2="356" stroke="#f7d3cd" stroke-width="0.45"/>
<line x1="592" y1="260" x2="592" y2="356" stroke="#f7d3cd" stroke-width="0.45"/>
<line x1="600" y1="260" x2="600" y2="356" stroke="#f7d3cd" stroke-width="1.1"/>
<line x1="608" y1="260" x2="608" y2="356" stroke="#f7d3cd" stroke-width="0.45"/>
<line x1="616" y1="260" x2="616" y2="356" stroke="#f7d3cd" stroke-width="0.45"/>
<line x1="624" y1="260" x2="624" y2="356" stroke="#f7d3cd" stroke-width="0.45"/>
<line x1="632" y1="260" x2="632" y2="356" stroke="#f7d3cd" stroke-width="0.45"/>
<line x1="640" y1="260" x2="640" y2="356" stroke="#f7d3cd" stroke-width="1.1"/>
<line x1="648" y1="260" x2="648" y2="356" stroke="#f7d3cd" stroke-width="0.45"/>
<line x1="656" y1="260" x2="656" y2="356" stroke="#f7d3cd" stroke-width="0.45"/>
<line x1="664" y1="260" x2="664" y2="356" stroke="#f7d3cd" stroke-width="0.45"/>
<line x1="672" y1="260" x2="672" y2="356" stroke="#f7d3cd" stroke-width="0.45"/>
<line x1="680" y1="260" x2="680" y2="356" stroke="#f7d3cd" stroke-width="1.1"/>
<line x1="688" y1="260" x2="688" y2="356" stroke="#f7d3cd" stroke-width="0.45"/>
<line x1="696" y1="260" x2="696" y2="356" stroke="#f7d3cd" stroke-width="0.45"/>
<line x1="704" y1="260" x2="704" y2="356" stroke="#f7d3cd" stroke-width="0.45"/>
<line x1="712" y1="260" x2="712" y2="356" stroke="#f7d3cd" stroke-width="0.45"/>
<line x1="720" y1="260" x2="720" y2="356" stroke="#f7d3cd" stroke-width="1.1"/>
<line x1="728" y1="260" x2="728" y2="356" stroke="#f7d3cd" stroke-width="0.45"/>
<line x1="736" y1="260" x2="736" y2="356" stroke="#f7d3cd" stroke-width="0.45"/>
<line x1="744" y1="260" x2="744" y2="356" stroke="#f7d3cd" stroke-width="0.45"/>
<line x1="752" y1="260" x2="752" y2="356" stroke="#f7d3cd" stroke-width="0.45"/>
<line x1="760" y1="260" x2="760" y2="356" stroke="#f7d3cd" stroke-width="1.1"/>
<line x1="768" y1="260" x2="768" y2="356" stroke="#f7d3cd" stroke-width="0.45"/>
<line x1="776" y1="260" x2="776" y2="356" stroke="#f7d3cd" stroke-width="0.45"/>
<line x1="784" y1="260" x2="784" y2="356" stroke="#f7d3cd" stroke-width="0.45"/>
<line x1="792" y1="260" x2="792" y2="356" stroke="#f7d3cd" stroke-width="0.45"/>
<line x1="800" y1="260" x2="800" y2="356" stroke="#f7d3cd" stroke-width="1.1"/>
<line x1="808" y1="260" x2="808" y2="356" stroke="#f7d3cd" stroke-width="0.45"/>
<line x1="816" y1="260" x2="816" y2="356" stroke="#f7d3cd" stroke-width="0.45"/>
<line x1="824" y1="260" x2="824" y2="356" stroke="#f7d3cd" stroke-width="0.45"/>
<line x1="832" y1="260" x2="832" y2="356" stroke="#f7d3cd" stroke-width="0.45"/>
<line x1="840" y1="260" x2="840" y2="356" stroke="#f7d3cd" stroke-width="1.1"/>
<line x1="848" y1="260" x2="848" y2="356" stroke="#f7d3cd" stroke-width="0.45"/>
<line x1="856" y1="260" x2="856" y2="356" stroke="#f7d3cd" stroke-width="0.45"/>
<line x1="864" y1="260" x2="864" y2="356" stroke="#f7d3cd" stroke-width="0.45"/>
<line x1="872" y1="260" x2="872" y2="356" stroke="#f7d3cd" stroke-width="0.45"/>
<line x1="880" y1="260" x2="880" y2="356" stroke="#f7d3cd" stroke-width="1.1"/>
<line x1="888" y1="260" x2="888" y2="356" stroke="#f7d3cd" stroke-width="0.45"/>
<line x1="896" y1="260" x2="896" y2="356" stroke="#f7d3cd" stroke-width="0.45"/>
<line x1="904" y1="260" x2="904" y2="356" stroke="#f7d3cd" stroke-width="0.45"/>
<line x1="912" y1="260" x2="912" y2="356" stroke="#f7d3cd" stroke-width="0.45"/>
<line x1="920" y1="260" x2="920" y2="356" stroke="#f7d3cd" stroke-width="1.1"/>
<line x1="928" y1="260" x2="928" y2="356" stroke="#f7d3cd" stroke-width="0.45"/>
<line x1="936" y1="260" x2="936" y2="356" stroke="#f7d3cd" stroke-width="0.45"/>
<line x1="944" y1="260" x2="944" y2="356" stroke="#f7d3cd" stroke-width="0.45"/>
<line x1="200" y1="260" x2="946" y2="260" stroke="#f7d3cd" stroke-width="1.1"/>
<line x1="200" y1="268" x2="946" y2="268" stroke="#f7d3cd" stroke-width="0.45"/>
<line x1="200" y1="276" x2="946" y2="276" stroke="#f7d3cd" stroke-width="0.45"/>
<line x1="200" y1="284" x2="946" y2="284" stroke="#f7d3cd" stroke-width="0.45"/>
<line x1="200" y1="292" x2="946" y2="292" stroke="#f7d3cd" stroke-width="0.45"/>
<line x1="200" y1="300" x2="946" y2="300" stroke="#f7d3cd" stroke-width="1.1"/>
<line x1="200" y1="308" x2="946" y2="308" stroke="#f7d3cd" stroke-width="0.45"/>
<line x1="200" y1="316" x2="946" y2="316" stroke="#f7d3cd" stroke-width="0.45"/>
<line x1="200" y1="324" x2="946" y2="324" stroke="#f7d3cd" stroke-width="0.45"/>
<line x1="200" y1="332" x2="946" y2="332" stroke="#f7d3cd" stroke-width="0.45"/>
<line x1="200" y1="340" x2="946" y2="340" stroke="#f7d3cd" stroke-width="1.1"/>
<line x1="200" y1="348" x2="946" y2="348" stroke="#f7d3cd" stroke-width="0.45"/>
<line x1="200" y1="356" x2="946" y2="356" stroke="#f7d3cd" stroke-width="0.45"/>
<text x="14" y="298" font-size="15" font-weight="700" fill="#1f2933">Flutter auricular 2:1</text>
<text x="14" y="318" font-size="12" fill="#52606d">Ondas F en 'dientes de</text>
<text x="14" y="333" font-size="12" fill="#52606d">sierra' ~300/min, FC</text>
<text x="14" y="348" font-size="12" fill="#52606d">~150/min</text>
<path d="M204.0 330.0 L206.0 322.0 L222.5 338.0 L228.0 322.0 L228.0 322.0 L235.7 330.0 L238.7 335.0 L243.7 278.0 L248.7 342.0 L251.7 333.0 L244.5 338.0 L250.0 322.0 L250.0 322.0 L266.5 338.0 L272.0 322.0 L272.0 322.0 L279.7 330.0 L282.7 335.0 L287.7 278.0 L292.7 342.0 L295.7 333.0 L288.5 338.0 L294.0 322.0 L294.0 322.0 L310.5 338.0 L316.0 322.0 L316.0 322.0 L323.7 330.0 L326.7 335.0 L331.7 278.0 L336.7 342.0 L339.7 333.0 L332.5 338.0 L338.0 322.0 L338.0 322.0 L354.5 338.0 L360.0 322.0 L360.0 322.0 L367.7 330.0 L370.7 335.0 L375.7 278.0 L380.7 342.0 L383.7 333.0 L376.5 338.0 L382.0 322.0 L382.0 322.0 L398.5 338.0 L404.0 322.0 L404.0 322.0 L411.7 330.0 L414.7 335.0 L419.7 278.0 L424.7 342.0 L427.7 333.0 L420.5 338.0 L426.0 322.0 L426.0 322.0 L442.5 338.0 L448.0 322.0 L448.0 322.0 L455.7 330.0 L458.7 335.0 L463.7 278.0 L468.7 342.0 L471.7 333.0 L464.5 338.0 L470.0 322.0 L470.0 322.0 L486.5 338.0 L492.0 322.0 L492.0 322.0 L499.7 330.0 L502.7 335.0 L507.7 278.0 L512.7 342.0 L515.7 333.0 L508.5 338.0 L514.0 322.0 L514.0 322.0 L530.5 338.0 L536.0 322.0 L536.0 322.0 L543.7 330.0 L546.7 335.0 L551.7 278.0 L556.7 342.0 L559.7 333.0 L552.5 338.0 L558.0 322.0 L558.0 322.0 L574.5 338.0 L580.0 322.0 L580.0 322.0 L587.7 330.0 L590.7 335.0 L595.7 278.0 L600.7 342.0 L603.7 333.0 L596.5 338.0 L602.0 322.0 L602.0 322.0 L618.5 338.0 L624.0 322.0 L624.0 322.0 L631.7 330.0 L634.7 335.0 L639.7 278.0 L644.7 342.0 L647.7 333.0 L640.5 338.0 L646.0 322.0 L646.0 322.0 L662.5 338.0 L668.0 322.0 L668.0 322.0 L675.7 330.0 L678.7 335.0 L683.7 278.0 L688.7 342.0 L691.7 333.0 L684.5 338.0 L690.0 322.0 L690.0 322.0 L706.5 338.0 L712.0 322.0 L712.0 322.0 L719.7 330.0 L722.7 335.0 L727.7 278.0 L732.7 342.0 L735.7 333.0 L728.5 338.0 L734.0 322.0 L734.0 322.0 L750.5 338.0 L756.0 322.0 L756.0 322.0 L763.7 330.0 L766.7 335.0 L771.7 278.0 L776.7 342.0 L779.7 333.0 L772.5 338.0 L778.0 322.0 L778.0 322.0 L794.5 338.0 L800.0 322.0 L800.0 322.0 L807.7 330.0 L810.7 335.0 L815.7 278.0 L820.7 342.0 L823.7 333.0 L816.5 338.0 L822.0 322.0 L822.0 322.0 L838.5 338.0 L844.0 322.0 L844.0 322.0 L851.7 330.0 L854.7 335.0 L859.7 278.0 L864.7 342.0 L867.7 333.0 L860.5 338.0 L866.0 322.0 L866.0 322.0 L882.5 338.0 L888.0 322.0 L888.0 322.0 L895.7 330.0 L898.7 335.0 L903.7 278.0 L908.7 342.0 L911.7 333.0 L904.5 338.0 L910.0 322.0 L910.0 322.0 L926.5 338.0 L932.0 322.0 L942.0 330.0" fill="none" stroke="#1f2933" stroke-width="2.1" stroke-linejoin="round"/>
<text x="14" y="392" font-size="11.5" fill="#52606d">Esquema propio, ilustrativo (no a escala exacta).</text>
</svg>